<mxfile host="Electron" agent="Mozilla/5.0 (Windows NT 10.0; Win64; x64) AppleWebKit/537.36 (KHTML, like Gecko) draw.io/24.7.8 Chrome/128.0.6613.36 Electron/32.0.1 Safari/537.36" version="24.7.8">
  <diagram name="PÃ¡gina-1" id="tjEfFU8aL_545DcAS6ed">
    <mxGraphModel dx="1674" dy="844" grid="1" gridSize="10" guides="1" tooltips="1" connect="1" arrows="1" fold="1" page="1" pageScale="1" pageWidth="1169" pageHeight="827" math="0" shadow="0">
      <root>
        <mxCell id="0" />
        <mxCell id="1" parent="0" />
        <mxCell id="KIVsGcQKtdyG-_P7PkKO-1" value="" style="rounded=0;whiteSpace=wrap;html=1;shadow=0;glass=0;" parent="1" vertex="1">
          <mxGeometry x="30" y="50" width="790" height="750" as="geometry" />
        </mxCell>
        <mxCell id="KIVsGcQKtdyG-_P7PkKO-2" value="&lt;b&gt;DIAGRAMA DE SECUENCIAS -&amp;nbsp; EXAMEN&lt;/b&gt;" style="text;html=1;align=center;verticalAlign=middle;whiteSpace=wrap;rounded=0;" parent="1" vertex="1">
          <mxGeometry x="215" y="90" width="370" height="30" as="geometry" />
        </mxCell>
        <mxCell id="KIVsGcQKtdyG-_P7PkKO-3" value="Administrador" style="rounded=0;whiteSpace=wrap;html=1;fillColor=#ece4e4;" parent="1" vertex="1">
          <mxGeometry x="240" y="129" width="120" height="30" as="geometry" />
        </mxCell>
        <mxCell id="KIVsGcQKtdyG-_P7PkKO-4" value="Sistema" style="rounded=0;whiteSpace=wrap;html=1;fillColor=#ece4e4;" parent="1" vertex="1">
          <mxGeometry x="400" y="129" width="120" height="30" as="geometry" />
        </mxCell>
        <mxCell id="KIVsGcQKtdyG-_P7PkKO-5" value="BD" style="rounded=0;whiteSpace=wrap;html=1;fillColor=#ece4e4;" parent="1" vertex="1">
          <mxGeometry x="610" y="130" width="120" height="30" as="geometry" />
        </mxCell>
        <mxCell id="KIVsGcQKtdyG-_P7PkKO-6" value="" style="endArrow=none;dashed=1;html=1;rounded=0;entryX=0.5;entryY=1;entryDx=0;entryDy=0;exitX=0.339;exitY=0.999;exitDx=0;exitDy=0;exitPerimeter=0;" parent="1" source="KIVsGcQKtdyG-_P7PkKO-1" edge="1">
          <mxGeometry width="50" height="50" relative="1" as="geometry">
            <mxPoint x="297.02" y="750.0999999999999" as="sourcePoint" />
            <mxPoint x="300" y="157" as="targetPoint" />
          </mxGeometry>
        </mxCell>
        <mxCell id="KIVsGcQKtdyG-_P7PkKO-7" value="" style="endArrow=none;dashed=1;html=1;rounded=0;entryX=0.5;entryY=1;entryDx=0;entryDy=0;exitX=0.808;exitY=0.996;exitDx=0;exitDy=0;exitPerimeter=0;" parent="1" source="KIVsGcQKtdyG-_P7PkKO-1" edge="1">
          <mxGeometry width="50" height="50" relative="1" as="geometry">
            <mxPoint x="669" y="691" as="sourcePoint" />
            <mxPoint x="671" y="160" as="targetPoint" />
          </mxGeometry>
        </mxCell>
        <mxCell id="KIVsGcQKtdyG-_P7PkKO-8" value="" style="endArrow=none;dashed=1;html=1;rounded=0;entryX=0.5;entryY=1;entryDx=0;entryDy=0;exitX=0.546;exitY=1.001;exitDx=0;exitDy=0;exitPerimeter=0;" parent="1" source="KIVsGcQKtdyG-_P7PkKO-1" edge="1">
          <mxGeometry width="50" height="50" relative="1" as="geometry">
            <mxPoint x="461.34000000000015" y="750.8000000000002" as="sourcePoint" />
            <mxPoint x="461" y="157" as="targetPoint" />
          </mxGeometry>
        </mxCell>
        <mxCell id="KIVsGcQKtdyG-_P7PkKO-9" value="" style="rounded=0;whiteSpace=wrap;html=1;" parent="1" vertex="1">
          <mxGeometry x="290" y="179" width="20" height="41" as="geometry" />
        </mxCell>
        <mxCell id="KIVsGcQKtdyG-_P7PkKO-10" value="" style="endArrow=classic;html=1;rounded=0;exitX=0.75;exitY=1;exitDx=0;exitDy=0;entryX=0.25;entryY=0;entryDx=0;entryDy=0;" parent="1" source="KIVsGcQKtdyG-_P7PkKO-9" target="KIVsGcQKtdyG-_P7PkKO-11" edge="1">
          <mxGeometry width="50" height="50" relative="1" as="geometry">
            <mxPoint x="230" y="410" as="sourcePoint" />
            <mxPoint x="370" y="250" as="targetPoint" />
          </mxGeometry>
        </mxCell>
        <mxCell id="KIVsGcQKtdyG-_P7PkKO-21" value="Crea un nuevo examen" style="edgeLabel;html=1;align=center;verticalAlign=middle;resizable=0;points=[];" parent="KIVsGcQKtdyG-_P7PkKO-10" vertex="1" connectable="0">
          <mxGeometry x="-0.2634" y="1" relative="1" as="geometry">
            <mxPoint x="18" as="offset" />
          </mxGeometry>
        </mxCell>
        <mxCell id="KIVsGcQKtdyG-_P7PkKO-11" value="" style="rounded=0;whiteSpace=wrap;html=1;" parent="1" vertex="1">
          <mxGeometry x="450" y="220" width="20" height="43" as="geometry" />
        </mxCell>
        <mxCell id="KIVsGcQKtdyG-_P7PkKO-22" value="" style="rounded=0;whiteSpace=wrap;html=1;" parent="1" vertex="1">
          <mxGeometry x="660" y="265" width="20" height="42" as="geometry" />
        </mxCell>
        <mxCell id="KIVsGcQKtdyG-_P7PkKO-24" value="" style="endArrow=classic;html=1;rounded=0;exitX=1;exitY=1;exitDx=0;exitDy=0;entryX=0;entryY=0;entryDx=0;entryDy=0;" parent="1" source="KIVsGcQKtdyG-_P7PkKO-11" target="KIVsGcQKtdyG-_P7PkKO-22" edge="1">
          <mxGeometry width="50" height="50" relative="1" as="geometry">
            <mxPoint x="125" y="260" as="sourcePoint" />
            <mxPoint x="415" y="258" as="targetPoint" />
          </mxGeometry>
        </mxCell>
        <mxCell id="KIVsGcQKtdyG-_P7PkKO-25" value="Almacena informacion examen" style="edgeLabel;html=1;align=center;verticalAlign=middle;resizable=0;points=[];" parent="KIVsGcQKtdyG-_P7PkKO-24" vertex="1" connectable="0">
          <mxGeometry x="-0.2634" y="1" relative="1" as="geometry">
            <mxPoint x="26" as="offset" />
          </mxGeometry>
        </mxCell>
        <mxCell id="KIVsGcQKtdyG-_P7PkKO-26" value="" style="rounded=0;whiteSpace=wrap;html=1;" parent="1" vertex="1">
          <mxGeometry x="452" y="306" width="20" height="42" as="geometry" />
        </mxCell>
        <mxCell id="KIVsGcQKtdyG-_P7PkKO-27" value="" style="endArrow=classic;html=1;rounded=0;exitX=0;exitY=1;exitDx=0;exitDy=0;entryX=1;entryY=0;entryDx=0;entryDy=0;dashed=1;dashPattern=8 8;" parent="1" source="KIVsGcQKtdyG-_P7PkKO-22" target="KIVsGcQKtdyG-_P7PkKO-26" edge="1">
          <mxGeometry width="50" height="50" relative="1" as="geometry">
            <mxPoint x="430" y="328" as="sourcePoint" />
            <mxPoint x="670" y="328" as="targetPoint" />
          </mxGeometry>
        </mxCell>
        <mxCell id="KIVsGcQKtdyG-_P7PkKO-29" value="Confirma alm. examen" style="edgeLabel;html=1;align=center;verticalAlign=middle;resizable=0;points=[];" parent="KIVsGcQKtdyG-_P7PkKO-27" vertex="1" connectable="0">
          <mxGeometry x="0.6067" y="1" relative="1" as="geometry">
            <mxPoint x="60" as="offset" />
          </mxGeometry>
        </mxCell>
        <mxCell id="KIVsGcQKtdyG-_P7PkKO-31" value="Evaluado" style="rounded=0;whiteSpace=wrap;html=1;fillColor=#ece4e4;" parent="1" vertex="1">
          <mxGeometry x="70" y="130" width="120" height="30" as="geometry" />
        </mxCell>
        <mxCell id="KIVsGcQKtdyG-_P7PkKO-32" value="" style="endArrow=none;dashed=1;html=1;rounded=0;entryX=0.5;entryY=1;entryDx=0;entryDy=0;exitX=0.13;exitY=1;exitDx=0;exitDy=0;exitPerimeter=0;" parent="1" source="KIVsGcQKtdyG-_P7PkKO-1" edge="1">
          <mxGeometry width="50" height="50" relative="1" as="geometry">
            <mxPoint x="127.17000000000007" y="750.0999999999999" as="sourcePoint" />
            <mxPoint x="130" y="158" as="targetPoint" />
          </mxGeometry>
        </mxCell>
        <mxCell id="KIVsGcQKtdyG-_P7PkKO-33" value="" style="rounded=0;whiteSpace=wrap;html=1;" parent="1" vertex="1">
          <mxGeometry x="120" y="531" width="20" height="44" as="geometry" />
        </mxCell>
        <mxCell id="KIVsGcQKtdyG-_P7PkKO-34" value="" style="rounded=0;whiteSpace=wrap;html=1;" parent="1" vertex="1">
          <mxGeometry x="290" y="338" width="20" height="42" as="geometry" />
        </mxCell>
        <mxCell id="KIVsGcQKtdyG-_P7PkKO-35" value="" style="endArrow=classic;html=1;rounded=0;entryX=1;entryY=0;entryDx=0;entryDy=0;dashed=1;dashPattern=8 8;" parent="1" target="KIVsGcQKtdyG-_P7PkKO-34" edge="1">
          <mxGeometry width="50" height="50" relative="1" as="geometry">
            <mxPoint x="450" y="340" as="sourcePoint" />
            <mxPoint x="508" y="367" as="targetPoint" />
          </mxGeometry>
        </mxCell>
        <mxCell id="KIVsGcQKtdyG-_P7PkKO-36" value="Visualiza nuevo exa." style="edgeLabel;html=1;align=center;verticalAlign=middle;resizable=0;points=[];" parent="KIVsGcQKtdyG-_P7PkKO-35" vertex="1" connectable="0">
          <mxGeometry x="0.6067" y="1" relative="1" as="geometry">
            <mxPoint x="40" as="offset" />
          </mxGeometry>
        </mxCell>
        <mxCell id="KIVsGcQKtdyG-_P7PkKO-37" value="" style="endArrow=classic;html=1;rounded=0;exitX=0.75;exitY=1;exitDx=0;exitDy=0;entryX=0.25;entryY=0;entryDx=0;entryDy=0;" parent="1" target="KIVsGcQKtdyG-_P7PkKO-39" edge="1">
          <mxGeometry width="50" height="50" relative="1" as="geometry">
            <mxPoint x="140" y="575" as="sourcePoint" />
            <mxPoint x="290" y="573" as="targetPoint" />
          </mxGeometry>
        </mxCell>
        <mxCell id="KIVsGcQKtdyG-_P7PkKO-38" value="Visualiza examen asignado" style="edgeLabel;html=1;align=center;verticalAlign=middle;resizable=0;points=[];" parent="KIVsGcQKtdyG-_P7PkKO-37" vertex="1" connectable="0">
          <mxGeometry x="-0.2634" y="1" relative="1" as="geometry">
            <mxPoint x="18" as="offset" />
          </mxGeometry>
        </mxCell>
        <mxCell id="KIVsGcQKtdyG-_P7PkKO-39" value="" style="rounded=0;whiteSpace=wrap;html=1;" parent="1" vertex="1">
          <mxGeometry x="450" y="575" width="20" height="74" as="geometry" />
        </mxCell>
        <mxCell id="KIVsGcQKtdyG-_P7PkKO-43" value="Proceso examen" style="html=1;align=left;spacingLeft=2;endArrow=block;rounded=0;edgeStyle=orthogonalEdgeStyle;curved=0;rounded=0;" parent="1" source="KIVsGcQKtdyG-_P7PkKO-39" edge="1">
          <mxGeometry relative="1" as="geometry">
            <mxPoint x="472" y="597" as="sourcePoint" />
            <Array as="points">
              <mxPoint x="502" y="589" />
              <mxPoint x="502" y="639" />
            </Array>
            <mxPoint x="472" y="639" as="targetPoint" />
          </mxGeometry>
        </mxCell>
        <mxCell id="KIVsGcQKtdyG-_P7PkKO-44" value="" style="rounded=0;whiteSpace=wrap;html=1;" parent="1" vertex="1">
          <mxGeometry x="659" y="649" width="20" height="44" as="geometry" />
        </mxCell>
        <mxCell id="KIVsGcQKtdyG-_P7PkKO-45" value="" style="endArrow=classic;html=1;rounded=0;exitX=0.5;exitY=1;exitDx=0;exitDy=0;entryX=0.25;entryY=0;entryDx=0;entryDy=0;" parent="1" edge="1">
          <mxGeometry width="50" height="50" relative="1" as="geometry">
            <mxPoint x="453" y="649" as="sourcePoint" />
            <mxPoint x="657" y="649" as="targetPoint" />
          </mxGeometry>
        </mxCell>
        <mxCell id="KIVsGcQKtdyG-_P7PkKO-46" value="Almacena respuestas" style="edgeLabel;html=1;align=center;verticalAlign=middle;resizable=0;points=[];" parent="KIVsGcQKtdyG-_P7PkKO-45" vertex="1" connectable="0">
          <mxGeometry x="-0.2634" y="1" relative="1" as="geometry">
            <mxPoint x="33" as="offset" />
          </mxGeometry>
        </mxCell>
        <mxCell id="KIVsGcQKtdyG-_P7PkKO-47" value="" style="rounded=0;whiteSpace=wrap;html=1;" parent="1" vertex="1">
          <mxGeometry x="449" y="693" width="20" height="42" as="geometry" />
        </mxCell>
        <mxCell id="KIVsGcQKtdyG-_P7PkKO-48" value="" style="endArrow=classic;html=1;rounded=0;exitX=0;exitY=1;exitDx=0;exitDy=0;entryX=1;entryY=0;entryDx=0;entryDy=0;dashed=1;dashPattern=8 8;" parent="1" edge="1">
          <mxGeometry width="50" height="50" relative="1" as="geometry">
            <mxPoint x="660" y="695" as="sourcePoint" />
            <mxPoint x="472" y="693" as="targetPoint" />
          </mxGeometry>
        </mxCell>
        <mxCell id="KIVsGcQKtdyG-_P7PkKO-49" value="Devuelve respuesta correc." style="edgeLabel;html=1;align=center;verticalAlign=middle;resizable=0;points=[];" parent="KIVsGcQKtdyG-_P7PkKO-48" vertex="1" connectable="0">
          <mxGeometry x="0.6067" y="1" relative="1" as="geometry">
            <mxPoint x="60" as="offset" />
          </mxGeometry>
        </mxCell>
        <mxCell id="KIVsGcQKtdyG-_P7PkKO-50" value="Proce interno" style="html=1;align=left;spacingLeft=2;endArrow=block;rounded=0;edgeStyle=orthogonalEdgeStyle;curved=0;rounded=0;" parent="1" edge="1">
          <mxGeometry relative="1" as="geometry">
            <mxPoint x="680" y="649" as="sourcePoint" />
            <Array as="points">
              <mxPoint x="712" y="649" />
              <mxPoint x="712" y="689" />
              <mxPoint x="679" y="689" />
            </Array>
            <mxPoint x="679" y="689" as="targetPoint" />
          </mxGeometry>
        </mxCell>
        <mxCell id="KIVsGcQKtdyG-_P7PkKO-66" value="" style="endArrow=classic;html=1;rounded=0;exitX=0.75;exitY=1;exitDx=0;exitDy=0;entryX=0.25;entryY=0;entryDx=0;entryDy=0;" parent="1" target="KIVsGcQKtdyG-_P7PkKO-68" edge="1">
          <mxGeometry width="50" height="50" relative="1" as="geometry">
            <mxPoint x="304" y="380" as="sourcePoint" />
            <mxPoint x="369" y="410" as="targetPoint" />
          </mxGeometry>
        </mxCell>
        <mxCell id="KIVsGcQKtdyG-_P7PkKO-67" value="Asigna examen" style="edgeLabel;html=1;align=center;verticalAlign=middle;resizable=0;points=[];" parent="KIVsGcQKtdyG-_P7PkKO-66" vertex="1" connectable="0">
          <mxGeometry x="-0.2634" y="1" relative="1" as="geometry">
            <mxPoint x="18" as="offset" />
          </mxGeometry>
        </mxCell>
        <mxCell id="KIVsGcQKtdyG-_P7PkKO-68" value="" style="rounded=0;whiteSpace=wrap;html=1;" parent="1" vertex="1">
          <mxGeometry x="449" y="380" width="20" height="43" as="geometry" />
        </mxCell>
        <mxCell id="KIVsGcQKtdyG-_P7PkKO-69" value="" style="rounded=0;whiteSpace=wrap;html=1;" parent="1" vertex="1">
          <mxGeometry x="659" y="424" width="20" height="42" as="geometry" />
        </mxCell>
        <mxCell id="KIVsGcQKtdyG-_P7PkKO-70" value="" style="endArrow=classic;html=1;rounded=0;exitX=1;exitY=1;exitDx=0;exitDy=0;entryX=0;entryY=0;entryDx=0;entryDy=0;" parent="1" target="KIVsGcQKtdyG-_P7PkKO-69" edge="1">
          <mxGeometry width="50" height="50" relative="1" as="geometry">
            <mxPoint x="469" y="422" as="sourcePoint" />
            <mxPoint x="414" y="417" as="targetPoint" />
          </mxGeometry>
        </mxCell>
        <mxCell id="KIVsGcQKtdyG-_P7PkKO-71" value="Almacena informacion asign." style="edgeLabel;html=1;align=center;verticalAlign=middle;resizable=0;points=[];" parent="KIVsGcQKtdyG-_P7PkKO-70" vertex="1" connectable="0">
          <mxGeometry x="-0.2634" y="1" relative="1" as="geometry">
            <mxPoint x="26" as="offset" />
          </mxGeometry>
        </mxCell>
        <mxCell id="KIVsGcQKtdyG-_P7PkKO-74" value="" style="rounded=0;whiteSpace=wrap;html=1;" parent="1" vertex="1">
          <mxGeometry x="452" y="466" width="20" height="42" as="geometry" />
        </mxCell>
        <mxCell id="KIVsGcQKtdyG-_P7PkKO-75" value="" style="endArrow=classic;html=1;rounded=0;exitX=0;exitY=1;exitDx=0;exitDy=0;entryX=1;entryY=0;entryDx=0;entryDy=0;dashed=1;dashPattern=8 8;" parent="1" target="KIVsGcQKtdyG-_P7PkKO-74" edge="1">
          <mxGeometry width="50" height="50" relative="1" as="geometry">
            <mxPoint x="660" y="467" as="sourcePoint" />
            <mxPoint x="670" y="488" as="targetPoint" />
          </mxGeometry>
        </mxCell>
        <mxCell id="KIVsGcQKtdyG-_P7PkKO-76" value="Confirma asignacion" style="edgeLabel;html=1;align=center;verticalAlign=middle;resizable=0;points=[];" parent="KIVsGcQKtdyG-_P7PkKO-75" vertex="1" connectable="0">
          <mxGeometry x="0.6067" y="1" relative="1" as="geometry">
            <mxPoint x="60" as="offset" />
          </mxGeometry>
        </mxCell>
        <mxCell id="KIVsGcQKtdyG-_P7PkKO-80" value="" style="rounded=0;whiteSpace=wrap;html=1;" parent="1" vertex="1">
          <mxGeometry x="290" y="508" width="20" height="42" as="geometry" />
        </mxCell>
        <mxCell id="KIVsGcQKtdyG-_P7PkKO-81" value="" style="endArrow=classic;html=1;rounded=0;entryX=1;entryY=0;entryDx=0;entryDy=0;dashed=1;dashPattern=8 8;" parent="1" target="KIVsGcQKtdyG-_P7PkKO-80" edge="1">
          <mxGeometry width="50" height="50" relative="1" as="geometry">
            <mxPoint x="450" y="508" as="sourcePoint" />
            <mxPoint x="528" y="530" as="targetPoint" />
          </mxGeometry>
        </mxCell>
        <mxCell id="KIVsGcQKtdyG-_P7PkKO-82" value="Visualiza asignacion" style="edgeLabel;html=1;align=center;verticalAlign=middle;resizable=0;points=[];" parent="KIVsGcQKtdyG-_P7PkKO-81" vertex="1" connectable="0">
          <mxGeometry x="0.6067" y="1" relative="1" as="geometry">
            <mxPoint x="47" as="offset" />
          </mxGeometry>
        </mxCell>
        <mxCell id="KIVsGcQKtdyG-_P7PkKO-83" value="" style="rounded=0;whiteSpace=wrap;html=1;" parent="1" vertex="1">
          <mxGeometry x="121" y="735" width="20" height="42" as="geometry" />
        </mxCell>
        <mxCell id="KIVsGcQKtdyG-_P7PkKO-84" value="" style="rounded=0;whiteSpace=wrap;html=1;" parent="1" vertex="1">
          <mxGeometry x="288" y="735" width="20" height="42" as="geometry" />
        </mxCell>
        <mxCell id="KIVsGcQKtdyG-_P7PkKO-86" value="" style="endArrow=classic;html=1;rounded=0;entryX=1;entryY=0;entryDx=0;entryDy=0;dashed=1;dashPattern=8 8;" parent="1" target="KIVsGcQKtdyG-_P7PkKO-83" edge="1">
          <mxGeometry width="50" height="50" relative="1" as="geometry">
            <mxPoint x="290" y="735" as="sourcePoint" />
            <mxPoint x="261" y="735" as="targetPoint" />
          </mxGeometry>
        </mxCell>
        <mxCell id="KIVsGcQKtdyG-_P7PkKO-87" value="Visualiza exa. terminado" style="edgeLabel;html=1;align=center;verticalAlign=middle;resizable=0;points=[];" parent="KIVsGcQKtdyG-_P7PkKO-86" vertex="1" connectable="0">
          <mxGeometry x="0.6067" y="1" relative="1" as="geometry">
            <mxPoint x="46" as="offset" />
          </mxGeometry>
        </mxCell>
        <mxCell id="KIVsGcQKtdyG-_P7PkKO-88" value="" style="endArrow=classic;html=1;rounded=0;entryX=1;entryY=0;entryDx=0;entryDy=0;dashed=1;dashPattern=8 8;" parent="1" edge="1">
          <mxGeometry width="50" height="50" relative="1" as="geometry">
            <mxPoint x="450" y="735" as="sourcePoint" />
            <mxPoint x="306" y="735" as="targetPoint" />
          </mxGeometry>
        </mxCell>
        <mxCell id="KIVsGcQKtdyG-_P7PkKO-89" value="Visualiza resultado" style="edgeLabel;html=1;align=center;verticalAlign=middle;resizable=0;points=[];" parent="KIVsGcQKtdyG-_P7PkKO-88" vertex="1" connectable="0">
          <mxGeometry x="0.6067" y="1" relative="1" as="geometry">
            <mxPoint x="48" as="offset" />
          </mxGeometry>
        </mxCell>
        <mxCell id="KIVsGcQKtdyG-_P7PkKO-91" value="Proceso" style="html=1;align=left;spacingLeft=2;endArrow=block;rounded=0;edgeStyle=orthogonalEdgeStyle;curved=0;rounded=0;entryX=1;entryY=1;entryDx=0;entryDy=0;" parent="1" target="KIVsGcQKtdyG-_P7PkKO-47" edge="1">
          <mxGeometry relative="1" as="geometry">
            <mxPoint x="472" y="700.06" as="sourcePoint" />
            <Array as="points">
              <mxPoint x="504" y="700" />
              <mxPoint x="504" y="735" />
            </Array>
            <mxPoint x="474" y="750.06" as="targetPoint" />
          </mxGeometry>
        </mxCell>
        <mxCell id="KIVsGcQKtdyG-_P7PkKO-92" value="" style="rounded=0;whiteSpace=wrap;html=1;shadow=0;glass=0;" parent="1" vertex="1">
          <mxGeometry x="909" y="49.63" width="790" height="750" as="geometry" />
        </mxCell>
        <mxCell id="KIVsGcQKtdyG-_P7PkKO-93" value="&lt;b&gt;DIAGRAMA DE SECUENCIAS -&amp;nbsp; ADMINISTRACION DE USUARIOS&lt;/b&gt;" style="text;html=1;align=center;verticalAlign=middle;whiteSpace=wrap;rounded=0;" parent="1" vertex="1">
          <mxGeometry x="1084" y="80" width="455" height="30" as="geometry" />
        </mxCell>
        <mxCell id="KIVsGcQKtdyG-_P7PkKO-94" value="Auxiliar" style="rounded=0;whiteSpace=wrap;html=1;fillColor=#ece4e4;" parent="1" vertex="1">
          <mxGeometry x="970" y="127.63" width="120" height="30" as="geometry" />
        </mxCell>
        <mxCell id="KIVsGcQKtdyG-_P7PkKO-95" value="Sistema" style="rounded=0;whiteSpace=wrap;html=1;fillColor=#ece4e4;" parent="1" vertex="1">
          <mxGeometry x="1220" y="127.63" width="120" height="30" as="geometry" />
        </mxCell>
        <mxCell id="KIVsGcQKtdyG-_P7PkKO-96" value="BD" style="rounded=0;whiteSpace=wrap;html=1;fillColor=#ece4e4;" parent="1" vertex="1">
          <mxGeometry x="1490" y="128.63" width="120" height="30" as="geometry" />
        </mxCell>
        <mxCell id="KIVsGcQKtdyG-_P7PkKO-97" value="" style="endArrow=none;dashed=1;html=1;rounded=0;entryX=0.5;entryY=1;entryDx=0;entryDy=0;exitX=0.339;exitY=0.999;exitDx=0;exitDy=0;exitPerimeter=0;" parent="1" edge="1">
          <mxGeometry width="50" height="50" relative="1" as="geometry">
            <mxPoint x="1029.81" y="797.8799999999999" as="sourcePoint" />
            <mxPoint x="1032" y="155.63" as="targetPoint" />
          </mxGeometry>
        </mxCell>
        <mxCell id="KIVsGcQKtdyG-_P7PkKO-98" value="" style="endArrow=none;dashed=1;html=1;rounded=0;entryX=0.5;entryY=1;entryDx=0;entryDy=0;exitX=0.808;exitY=0.996;exitDx=0;exitDy=0;exitPerimeter=0;" parent="1" edge="1">
          <mxGeometry width="50" height="50" relative="1" as="geometry">
            <mxPoint x="1547.3200000000002" y="794.6300000000001" as="sourcePoint" />
            <mxPoint x="1551" y="156.63" as="targetPoint" />
          </mxGeometry>
        </mxCell>
        <mxCell id="KIVsGcQKtdyG-_P7PkKO-99" value="" style="endArrow=none;dashed=1;html=1;rounded=0;entryX=0.5;entryY=1;entryDx=0;entryDy=0;exitX=0.546;exitY=1.001;exitDx=0;exitDy=0;exitPerimeter=0;" parent="1" edge="1">
          <mxGeometry width="50" height="50" relative="1" as="geometry">
            <mxPoint x="1281.3399999999997" y="799.3799999999999" as="sourcePoint" />
            <mxPoint x="1281" y="155.63" as="targetPoint" />
          </mxGeometry>
        </mxCell>
        <mxCell id="KIVsGcQKtdyG-_P7PkKO-100" value="" style="rounded=0;whiteSpace=wrap;html=1;" parent="1" vertex="1">
          <mxGeometry x="1020" y="177.63" width="20" height="41" as="geometry" />
        </mxCell>
        <mxCell id="KIVsGcQKtdyG-_P7PkKO-101" value="" style="endArrow=classic;html=1;rounded=0;exitX=0.75;exitY=1;exitDx=0;exitDy=0;entryX=0.25;entryY=0;entryDx=0;entryDy=0;" parent="1" source="KIVsGcQKtdyG-_P7PkKO-100" target="KIVsGcQKtdyG-_P7PkKO-103" edge="1">
          <mxGeometry width="50" height="50" relative="1" as="geometry">
            <mxPoint x="960" y="408.63" as="sourcePoint" />
            <mxPoint x="1185" y="218.6300000000001" as="targetPoint" />
          </mxGeometry>
        </mxCell>
        <mxCell id="KIVsGcQKtdyG-_P7PkKO-102" value="Crea nuevo usuario" style="edgeLabel;html=1;align=center;verticalAlign=middle;resizable=0;points=[];" parent="KIVsGcQKtdyG-_P7PkKO-101" vertex="1" connectable="0">
          <mxGeometry x="-0.2634" y="1" relative="1" as="geometry">
            <mxPoint x="18" as="offset" />
          </mxGeometry>
        </mxCell>
        <mxCell id="KIVsGcQKtdyG-_P7PkKO-103" value="" style="rounded=0;whiteSpace=wrap;html=1;" parent="1" vertex="1">
          <mxGeometry x="1270" y="218.63" width="20" height="43" as="geometry" />
        </mxCell>
        <mxCell id="KIVsGcQKtdyG-_P7PkKO-104" value="" style="rounded=0;whiteSpace=wrap;html=1;" parent="1" vertex="1">
          <mxGeometry x="1540" y="260" width="20" height="75.63" as="geometry" />
        </mxCell>
        <mxCell id="KIVsGcQKtdyG-_P7PkKO-105" value="" style="endArrow=classic;html=1;rounded=0;exitX=1;exitY=1;exitDx=0;exitDy=0;entryX=0;entryY=0;entryDx=0;entryDy=0;" parent="1" source="KIVsGcQKtdyG-_P7PkKO-103" target="KIVsGcQKtdyG-_P7PkKO-104" edge="1">
          <mxGeometry width="50" height="50" relative="1" as="geometry">
            <mxPoint x="945" y="258.63" as="sourcePoint" />
            <mxPoint x="1480" y="263.6300000000001" as="targetPoint" />
          </mxGeometry>
        </mxCell>
        <mxCell id="KIVsGcQKtdyG-_P7PkKO-106" value="Almacena informacion nuevo usuario" style="edgeLabel;html=1;align=center;verticalAlign=middle;resizable=0;points=[];" parent="KIVsGcQKtdyG-_P7PkKO-105" vertex="1" connectable="0">
          <mxGeometry x="-0.2634" y="1" relative="1" as="geometry">
            <mxPoint x="26" as="offset" />
          </mxGeometry>
        </mxCell>
        <mxCell id="KIVsGcQKtdyG-_P7PkKO-107" value="" style="rounded=0;whiteSpace=wrap;html=1;" parent="1" vertex="1">
          <mxGeometry x="1272" y="334.63" width="20" height="42" as="geometry" />
        </mxCell>
        <mxCell id="KIVsGcQKtdyG-_P7PkKO-108" value="" style="endArrow=classic;html=1;rounded=0;exitX=0.25;exitY=1;exitDx=0;exitDy=0;entryX=1;entryY=0;entryDx=0;entryDy=0;dashed=1;dashPattern=8 8;" parent="1" source="KIVsGcQKtdyG-_P7PkKO-104" target="KIVsGcQKtdyG-_P7PkKO-107" edge="1">
          <mxGeometry width="50" height="50" relative="1" as="geometry">
            <mxPoint x="1480" y="335.6300000000001" as="sourcePoint" />
            <mxPoint x="1490" y="356.63" as="targetPoint" />
          </mxGeometry>
        </mxCell>
        <mxCell id="KIVsGcQKtdyG-_P7PkKO-109" value="Confirma almacenamiento nuevo usuario" style="edgeLabel;html=1;align=center;verticalAlign=middle;resizable=0;points=[];" parent="KIVsGcQKtdyG-_P7PkKO-108" vertex="1" connectable="0">
          <mxGeometry x="0.6067" y="1" relative="1" as="geometry">
            <mxPoint x="74" as="offset" />
          </mxGeometry>
        </mxCell>
        <mxCell id="KIVsGcQKtdyG-_P7PkKO-113" value="" style="rounded=0;whiteSpace=wrap;html=1;" parent="1" vertex="1">
          <mxGeometry x="1020" y="376.63" width="20" height="42" as="geometry" />
        </mxCell>
        <mxCell id="KIVsGcQKtdyG-_P7PkKO-114" value="" style="endArrow=classic;html=1;rounded=0;entryX=1;entryY=0;entryDx=0;entryDy=0;dashed=1;dashPattern=8 8;exitX=0.5;exitY=1;exitDx=0;exitDy=0;" parent="1" source="KIVsGcQKtdyG-_P7PkKO-107" target="KIVsGcQKtdyG-_P7PkKO-113" edge="1">
          <mxGeometry width="50" height="50" relative="1" as="geometry">
            <mxPoint x="1180" y="368.63" as="sourcePoint" />
            <mxPoint x="1238" y="395.63" as="targetPoint" />
          </mxGeometry>
        </mxCell>
        <mxCell id="KIVsGcQKtdyG-_P7PkKO-115" value="Visualiza nuevo usuario." style="edgeLabel;html=1;align=center;verticalAlign=middle;resizable=0;points=[];" parent="KIVsGcQKtdyG-_P7PkKO-114" vertex="1" connectable="0">
          <mxGeometry x="0.6067" y="1" relative="1" as="geometry">
            <mxPoint x="68" as="offset" />
          </mxGeometry>
        </mxCell>
        <mxCell id="KIVsGcQKtdyG-_P7PkKO-126" value="Proce interno" style="html=1;align=left;spacingLeft=2;endArrow=block;rounded=0;edgeStyle=orthogonalEdgeStyle;curved=0;rounded=0;" parent="1" edge="1">
          <mxGeometry relative="1" as="geometry">
            <mxPoint x="1560" y="582.98" as="sourcePoint" />
            <Array as="points">
              <mxPoint x="1592" y="582.98" />
              <mxPoint x="1592" y="622.98" />
              <mxPoint x="1559" y="622.98" />
            </Array>
            <mxPoint x="1559" y="622.98" as="targetPoint" />
          </mxGeometry>
        </mxCell>
        <mxCell id="KIVsGcQKtdyG-_P7PkKO-127" value="" style="endArrow=classic;html=1;rounded=0;entryX=0;entryY=0;entryDx=0;entryDy=0;exitX=1;exitY=1;exitDx=0;exitDy=0;" parent="1" source="KIVsGcQKtdyG-_P7PkKO-146" target="KIVsGcQKtdyG-_P7PkKO-129" edge="1">
          <mxGeometry width="50" height="50" relative="1" as="geometry">
            <mxPoint x="1060" y="510" as="sourcePoint" />
            <mxPoint x="1184" y="488.6300000000001" as="targetPoint" />
          </mxGeometry>
        </mxCell>
        <mxCell id="KIVsGcQKtdyG-_P7PkKO-128" value="CRUD usuarios" style="edgeLabel;html=1;align=center;verticalAlign=middle;resizable=0;points=[];" parent="KIVsGcQKtdyG-_P7PkKO-127" vertex="1" connectable="0">
          <mxGeometry x="-0.2634" y="1" relative="1" as="geometry">
            <mxPoint x="18" as="offset" />
          </mxGeometry>
        </mxCell>
        <mxCell id="KIVsGcQKtdyG-_P7PkKO-129" value="" style="rounded=0;whiteSpace=wrap;html=1;" parent="1" vertex="1">
          <mxGeometry x="1269" y="512.63" width="20" height="43" as="geometry" />
        </mxCell>
        <mxCell id="KIVsGcQKtdyG-_P7PkKO-130" value="" style="rounded=0;whiteSpace=wrap;html=1;" parent="1" vertex="1">
          <mxGeometry x="1539" y="556" width="20" height="94" as="geometry" />
        </mxCell>
        <mxCell id="KIVsGcQKtdyG-_P7PkKO-131" value="" style="endArrow=classic;html=1;rounded=0;exitX=0.75;exitY=1;exitDx=0;exitDy=0;entryX=0;entryY=0;entryDx=0;entryDy=0;" parent="1" source="KIVsGcQKtdyG-_P7PkKO-129" target="KIVsGcQKtdyG-_P7PkKO-130" edge="1">
          <mxGeometry width="50" height="50" relative="1" as="geometry">
            <mxPoint x="1289" y="530.63" as="sourcePoint" />
            <mxPoint x="1479" y="532.6300000000001" as="targetPoint" />
          </mxGeometry>
        </mxCell>
        <mxCell id="KIVsGcQKtdyG-_P7PkKO-132" value="Envia peticion CRUD" style="edgeLabel;html=1;align=center;verticalAlign=middle;resizable=0;points=[];" parent="KIVsGcQKtdyG-_P7PkKO-131" vertex="1" connectable="0">
          <mxGeometry x="-0.2634" y="1" relative="1" as="geometry">
            <mxPoint x="26" as="offset" />
          </mxGeometry>
        </mxCell>
        <mxCell id="KIVsGcQKtdyG-_P7PkKO-133" value="" style="rounded=0;whiteSpace=wrap;html=1;" parent="1" vertex="1">
          <mxGeometry x="1272" y="647" width="20" height="42" as="geometry" />
        </mxCell>
        <mxCell id="KIVsGcQKtdyG-_P7PkKO-134" value="" style="endArrow=classic;html=1;rounded=0;exitX=0;exitY=1;exitDx=0;exitDy=0;entryX=1;entryY=0;entryDx=0;entryDy=0;dashed=1;dashPattern=8 8;" parent="1" source="KIVsGcQKtdyG-_P7PkKO-130" target="KIVsGcQKtdyG-_P7PkKO-133" edge="1">
          <mxGeometry width="50" height="50" relative="1" as="geometry">
            <mxPoint x="1480" y="575.63" as="sourcePoint" />
            <mxPoint x="1490" y="596.63" as="targetPoint" />
          </mxGeometry>
        </mxCell>
        <mxCell id="KIVsGcQKtdyG-_P7PkKO-135" value="Devuelve peticion o confirma accion" style="edgeLabel;html=1;align=center;verticalAlign=middle;resizable=0;points=[];" parent="KIVsGcQKtdyG-_P7PkKO-134" vertex="1" connectable="0">
          <mxGeometry x="0.6067" y="1" relative="1" as="geometry">
            <mxPoint x="65" y="-2" as="offset" />
          </mxGeometry>
        </mxCell>
        <mxCell id="KIVsGcQKtdyG-_P7PkKO-136" value="" style="rounded=0;whiteSpace=wrap;html=1;" parent="1" vertex="1">
          <mxGeometry x="1020" y="688.63" width="20" height="42" as="geometry" />
        </mxCell>
        <mxCell id="KIVsGcQKtdyG-_P7PkKO-137" value="" style="endArrow=classic;html=1;rounded=0;entryX=1;entryY=0;entryDx=0;entryDy=0;dashed=1;dashPattern=8 8;exitX=0;exitY=1;exitDx=0;exitDy=0;" parent="1" source="KIVsGcQKtdyG-_P7PkKO-133" target="KIVsGcQKtdyG-_P7PkKO-136" edge="1">
          <mxGeometry width="50" height="50" relative="1" as="geometry">
            <mxPoint x="1180" y="664.63" as="sourcePoint" />
            <mxPoint x="1258" y="686.63" as="targetPoint" />
          </mxGeometry>
        </mxCell>
        <mxCell id="KIVsGcQKtdyG-_P7PkKO-138" value="Visualiza resultado de accion" style="edgeLabel;html=1;align=center;verticalAlign=middle;resizable=0;points=[];" parent="KIVsGcQKtdyG-_P7PkKO-137" vertex="1" connectable="0">
          <mxGeometry x="0.6067" y="1" relative="1" as="geometry">
            <mxPoint x="61" as="offset" />
          </mxGeometry>
        </mxCell>
        <mxCell id="KIVsGcQKtdyG-_P7PkKO-146" value="" style="rounded=0;whiteSpace=wrap;html=1;" parent="1" vertex="1">
          <mxGeometry x="1021" y="471.63" width="20" height="42" as="geometry" />
        </mxCell>
        <mxCell id="KIVsGcQKtdyG-_P7PkKO-148" value="Proce interno" style="html=1;align=left;spacingLeft=2;endArrow=block;rounded=0;edgeStyle=orthogonalEdgeStyle;curved=0;rounded=0;" parent="1" edge="1">
          <mxGeometry relative="1" as="geometry">
            <mxPoint x="1561" y="277.79999999999995" as="sourcePoint" />
            <Array as="points">
              <mxPoint x="1593" y="277.79999999999995" />
              <mxPoint x="1593" y="317.79999999999995" />
              <mxPoint x="1560" y="317.79999999999995" />
            </Array>
            <mxPoint x="1560" y="317.79999999999995" as="targetPoint" />
          </mxGeometry>
        </mxCell>
      </root>
    </mxGraphModel>
  </diagram>
</mxfile>
